<?xml version="1.0" encoding="UTF-8" standalone="no"?>
<!DOCTYPE svg PUBLIC "-//W3C//DTD SVG 1.1//EN" "http://www.w3.org/Graphics/SVG/1.1/DTD/svg11.dtd">
<!-- 由 Microsoft Visio, SVG Export 生成 1x4.svg 页-1 -->
<svg xmlns="http://www.w3.org/2000/svg" xmlns:xlink="http://www.w3.org/1999/xlink" xmlns:ev="http://www.w3.org/2001/xml-events"
		width="13.0412in" height="5.20691in" viewBox="0 0 938.967 374.898" xml:space="preserve" color-interpolation-filters="sRGB"
		class="st14">
	<style type="text/css">
	<![CDATA[
		.st1 {fill:none;stroke:none;stroke-width:0.25}
		.st2 {fill:#000000;font-family:Calibri;font-size:4.99999em}
		.st3 {fill:#000000;font-family:Calibri;font-size:3em}
		.st4 {fill:#000000;font-family:Calibri;font-size:1.99999em}
		.st5 {visibility:visible}
		.st6 {fill:#5b9bd5;fill-opacity:0.22;filter:url(#filter_2);stroke:#5b9bd5;stroke-opacity:0.22}
		.st7 {fill:#e2efd9;stroke:#000000;stroke-width:1}
		.st8 {fill:#fff2cc;stroke:#000000;stroke-width:1}
		.st9 {fill:#fbe5d5;stroke:#000000;stroke-width:1}
		.st10 {fill:#ffd965;stroke:#000000;stroke-width:0.5}
		.st11 {fill:#a8d08d;stroke:#000000;stroke-width:0.5}
		.st12 {stroke:#000000;stroke-dasharray:0.25,0.5;stroke-linecap:round;stroke-linejoin:round;stroke-width:0.25}
		.st13 {fill:#f4b183;stroke:#000000;stroke-width:0.5}
		.st14 {fill:none;fill-rule:evenodd;font-size:12px;overflow:visible;stroke-linecap:square;stroke-miterlimit:3}
	]]>
	</style>

	<defs id="Filters">
		<filter id="filter_2">
			<feGaussianBlur stdDeviation="2"/>
		</filter>
	</defs>
	<g>
		<title>页-1</title>
		<g id="shape1-1" transform="translate(309.027,-170.306)">
			<title>工作表.1</title>
			<desc>=</desc>
			<rect x="0" y="354.898" width="45.5538" height="20" class="st1"/>
			<text x="7.84" y="382.9" class="st2">=</text>		</g>
		<g id="shape2-4" transform="translate(599.578,-170.306)">
			<title>工作表.2</title>
			<desc>×</desc>
			<rect x="0" y="354.898" width="45.5538" height="20" class="st1"/>
			<text x="7.84" y="382.9" class="st2">×</text>		</g>
		<g id="shape3-7" transform="translate(473.536,-343.298)">
			<title>工作表.3</title>
			<desc>A</desc>
			<rect x="0" y="354.898" width="45.5538" height="20" class="st1"/>
			<text x="12.36" y="375.7" class="st3">A</text>		</g>
		<g id="shape4-10" transform="translate(757.001,-302.038)">
			<title>工作表.4</title>
			<desc>B</desc>
			<rect x="0" y="354.898" width="45.5538" height="20" class="st1"/>
			<text x="12.99" y="375.7" class="st3">B</text>		</g>
		<g id="shape5-13" transform="translate(147.552,-343.298)">
			<title>工作表.5</title>
			<desc>C</desc>
			<rect x="0" y="354.898" width="45.5538" height="20" class="st1"/>
			<text x="13.18" y="375.7" class="st3">C</text>		</g>
		<g id="shape6-16" transform="translate(0.25,-170.306)">
			<title>工作表.6</title>
			<desc>M</desc>
			<rect x="0" y="354.898" width="45.5538" height="20" class="st1"/>
			<text x="12.52" y="372.1" class="st4">M</text>		</g>
		<g id="shape7-19" transform="translate(147.552,-4.40009)">
			<title>工作表.7</title>
			<desc>N</desc>
			<rect x="0" y="354.898" width="45.5538" height="20" class="st1"/>
			<text x="15.03" y="372.1" class="st4">N</text>		</g>
		<g id="shape8-22" transform="translate(757.001,-66.9198)">
			<title>工作表.8</title>
			<desc>N</desc>
			<rect x="0" y="354.898" width="45.5538" height="20" class="st1"/>
			<text x="15.03" y="372.1" class="st4">N</text>		</g>
		<g id="shape9-25" transform="translate(473.536,-4.40009)">
			<title>工作表.9</title>
			<desc>K</desc>
			<rect x="0" y="354.898" width="45.5538" height="20" class="st1"/>
			<text x="16.54" y="372.1" class="st4">K</text>		</g>
		<g id="shape10-28" transform="translate(893.163,-170.306)">
			<title>工作表.10</title>
			<desc>K</desc>
			<rect x="0" y="354.898" width="45.5538" height="20" class="st1"/>
			<text x="16.54" y="372.1" class="st4">K</text>		</g>
		<g id="shape11-31" transform="translate(368.754,-129.046)">
			<title>工作表.11</title>
			<desc>M</desc>
			<rect x="0" y="354.898" width="45.5538" height="20" class="st1"/>
			<text x="12.52" y="372.1" class="st4">M</text>		</g>
		<g id="shape12-34" transform="translate(669.426,-98.8095)">
			<title>矩形.2</title>
			<g id="shadow12-35" transform="matrix(1,0,0,1,0.345598,1.97279)" class="st5">
				<rect x="0" y="204.819" width="226.772" height="170.079" class="st6"/>
			</g>
			<rect x="0" y="204.819" width="226.772" height="170.079" class="st7"/>
		</g>
		<g id="shape13-39" transform="translate(414.308,-42.1166)">
			<title>矩形.150</title>
			<g id="shadow13-40" transform="matrix(1,0,0,1,0.345598,1.97279)" class="st5">
				<rect x="0" y="91.4331" width="170.079" height="283.465" class="st6"/>
			</g>
			<rect x="0" y="91.4331" width="170.079" height="283.465" class="st8"/>
		</g>
		<g id="shape14-44" transform="translate(59.977,-42.1166)">
			<title>矩形.4</title>
			<g id="shadow14-45" transform="matrix(1,0,0,1,0.345598,1.97279)" class="st5">
				<rect x="0" y="91.4331" width="226.772" height="283.465" class="st6"/>
			</g>
			<rect x="0" y="91.4331" width="226.772" height="283.465" class="st9"/>
		</g>
		<g id="shape16-49" transform="translate(414.308,-254.715)">
			<title>矩形.221</title>
			<rect x="0" y="360.724" width="170.079" height="14.1732" class="st10"/>
		</g>
		<g id="shape17-51" transform="translate(1101.02,106.009) rotate(90)">
			<title>矩形.222</title>
			<rect x="0" y="318.205" width="170.079" height="56.6929" class="st11"/>
		</g>
		<g id="group18-53" transform="translate(669.426,-98.8095)">
			<title>工作表.18</title>
			<g id="shape19-54" transform="translate(-247.339,374.898) rotate(-90)">
				<title>工作表.19</title>
				<path d="M0 374.9 L170.08 374.9" class="st12"/>
			</g>
			<g id="shape20-57" transform="translate(-233.165,374.898) rotate(-90)">
				<title>工作表.20</title>
				<path d="M0 374.9 L170.08 374.9" class="st12"/>
			</g>
			<g id="shape21-60" transform="translate(-261.512,374.898) rotate(-90)">
				<title>工作表.21</title>
				<path d="M0 374.9 L170.08 374.9" class="st12"/>
			</g>
			<g id="shape22-63" transform="translate(-289.858,374.898) rotate(-90)">
				<title>工作表.22</title>
				<path d="M0 374.9 L170.08 374.9" class="st12"/>
			</g>
			<g id="shape23-66" transform="translate(-275.685,374.898) rotate(-90)">
				<title>工作表.23</title>
				<path d="M0 374.9 L170.08 374.9" class="st12"/>
			</g>
			<g id="shape24-69" transform="translate(-304.031,374.898) rotate(-90)">
				<title>工作表.24</title>
				<path d="M0 374.9 L170.08 374.9" class="st12"/>
			</g>
			<g id="shape25-72" transform="translate(-332.378,374.898) rotate(-90)">
				<title>工作表.25</title>
				<path d="M0 374.9 L170.08 374.9" class="st12"/>
			</g>
			<g id="shape26-75" transform="translate(-318.205,374.898) rotate(-90)">
				<title>工作表.26</title>
				<path d="M0 374.9 L170.08 374.9" class="st12"/>
			</g>
			<g id="shape27-78" transform="translate(-346.551,374.898) rotate(-90)">
				<title>工作表.27</title>
				<path d="M0 374.9 L170.08 374.9" class="st12"/>
			</g>
			<g id="shape28-81" transform="translate(-360.724,374.898) rotate(-90)">
				<title>工作表.28</title>
				<path d="M0 374.9 L170.08 374.9" class="st12"/>
			</g>
			<g id="shape29-84" transform="translate(-190.646,374.898) rotate(-90)">
				<title>工作表.29</title>
				<path d="M0 374.9 L170.08 374.9" class="st12"/>
			</g>
			<g id="shape30-87" transform="translate(-176.472,374.898) rotate(-90)">
				<title>工作表.30</title>
				<path d="M0 374.9 L170.08 374.9" class="st12"/>
			</g>
			<g id="shape31-90" transform="translate(-204.819,374.898) rotate(-90)">
				<title>工作表.31</title>
				<path d="M0 374.9 L170.08 374.9" class="st12"/>
			</g>
			<g id="shape32-93" transform="translate(-218.992,374.898) rotate(-90)">
				<title>工作表.32</title>
				<path d="M0 374.9 L170.08 374.9" class="st12"/>
			</g>
			<g id="shape33-96" transform="translate(-162.299,374.898) rotate(-90)">
				<title>工作表.33</title>
				<path d="M0 374.9 L170.08 374.9" class="st12"/>
			</g>
			<g id="shape34-99" transform="translate(226.772,608.063) rotate(180)">
				<title>工作表.34</title>
				<path d="M0 374.9 L226.77 374.9" class="st12"/>
			</g>
			<g id="shape35-102" transform="translate(226.772,593.89) rotate(180)">
				<title>工作表.35</title>
				<path d="M0 374.9 L226.77 374.9" class="st12"/>
			</g>
			<g id="shape36-105" transform="translate(226.772,622.236) rotate(180)">
				<title>工作表.36</title>
				<path d="M0 374.9 L226.77 374.9" class="st12"/>
			</g>
			<g id="shape37-108" transform="translate(226.772,650.583) rotate(180)">
				<title>工作表.37</title>
				<path d="M0 374.9 L226.77 374.9" class="st12"/>
			</g>
			<g id="shape38-111" transform="translate(226.772,636.409) rotate(180)">
				<title>工作表.38</title>
				<path d="M0 374.9 L226.77 374.9" class="st12"/>
			</g>
			<g id="shape39-114" transform="translate(226.772,664.756) rotate(180)">
				<title>工作表.39</title>
				<path d="M0 374.9 L226.77 374.9" class="st12"/>
			</g>
			<g id="shape40-117" transform="translate(226.772,693.102) rotate(180)">
				<title>工作表.40</title>
				<path d="M0 374.9 L226.77 374.9" class="st12"/>
			</g>
			<g id="shape41-120" transform="translate(226.772,678.929) rotate(180)">
				<title>工作表.41</title>
				<path d="M0 374.9 L226.77 374.9" class="st12"/>
			</g>
			<g id="shape42-123" transform="translate(226.772,707.276) rotate(180)">
				<title>工作表.42</title>
				<path d="M0 374.9 L226.77 374.9" class="st12"/>
			</g>
			<g id="shape43-126" transform="translate(226.772,721.449) rotate(180)">
				<title>工作表.43</title>
				<path d="M0 374.9 L226.77 374.9" class="st12"/>
			</g>
			<g id="shape44-129" transform="translate(226.772,735.622) rotate(180)">
				<title>工作表.44</title>
				<path d="M0 374.9 L226.77 374.9" class="st12"/>
			</g>
		</g>
		<g id="group45-132" transform="translate(414.308,-42.1166)">
			<title>工作表.45</title>
			<g id="shape46-133" transform="translate(170.079,494.677) rotate(180)">
				<title>工作表.46</title>
				<path d="M0 374.9 L170.08 374.9" class="st12"/>
			</g>
			<g id="shape47-136" transform="translate(170.079,480.504) rotate(180)">
				<title>工作表.47</title>
				<path d="M0 374.9 L170.08 374.9" class="st12"/>
			</g>
			<g id="shape48-139" transform="translate(170.079,508.85) rotate(180)">
				<title>工作表.48</title>
				<path d="M0 374.9 L170.08 374.9" class="st12"/>
			</g>
			<g id="shape49-142" transform="translate(170.079,537.197) rotate(180)">
				<title>工作表.49</title>
				<path d="M0 374.9 L170.08 374.9" class="st12"/>
			</g>
			<g id="shape50-145" transform="translate(170.079,523.024) rotate(180)">
				<title>工作表.50</title>
				<path d="M0 374.9 L170.08 374.9" class="st12"/>
			</g>
			<g id="shape51-148" transform="translate(170.079,551.37) rotate(180)">
				<title>工作表.51</title>
				<path d="M0 374.9 L170.08 374.9" class="st12"/>
			</g>
			<g id="shape52-151" transform="translate(170.079,579.717) rotate(180)">
				<title>工作表.52</title>
				<path d="M0 374.9 L170.08 374.9" class="st12"/>
			</g>
			<g id="shape53-154" transform="translate(170.079,565.543) rotate(180)">
				<title>工作表.53</title>
				<path d="M0 374.9 L170.08 374.9" class="st12"/>
			</g>
			<g id="shape54-157" transform="translate(170.079,593.89) rotate(180)">
				<title>工作表.54</title>
				<path d="M0 374.9 L170.08 374.9" class="st12"/>
			</g>
			<g id="shape55-160" transform="translate(170.079,622.236) rotate(180)">
				<title>工作表.55</title>
				<path d="M0 374.9 L170.08 374.9" class="st12"/>
			</g>
			<g id="shape56-163" transform="translate(170.079,608.063) rotate(180)">
				<title>工作表.56</title>
				<path d="M0 374.9 L170.08 374.9" class="st12"/>
			</g>
			<g id="shape57-166" transform="translate(170.079,636.409) rotate(180)">
				<title>工作表.57</title>
				<path d="M0 374.9 L170.08 374.9" class="st12"/>
			</g>
			<g id="shape58-169" transform="translate(170.079,664.756) rotate(180)">
				<title>工作表.58</title>
				<path d="M0 374.9 L170.08 374.9" class="st12"/>
			</g>
			<g id="shape59-172" transform="translate(170.079,650.583) rotate(180)">
				<title>工作表.59</title>
				<path d="M0 374.9 L170.08 374.9" class="st12"/>
			</g>
			<g id="shape60-175" transform="translate(170.079,678.929) rotate(180)">
				<title>工作表.60</title>
				<path d="M0 374.9 L170.08 374.9" class="st12"/>
			</g>
			<g id="shape61-178" transform="translate(170.079,707.276) rotate(180)">
				<title>工作表.61</title>
				<path d="M0 374.9 L170.08 374.9" class="st12"/>
			</g>
			<g id="shape62-181" transform="translate(170.079,693.102) rotate(180)">
				<title>工作表.62</title>
				<path d="M0 374.9 L170.08 374.9" class="st12"/>
			</g>
			<g id="shape63-184" transform="translate(170.079,721.449) rotate(180)">
				<title>工作表.63</title>
				<path d="M0 374.9 L170.08 374.9" class="st12"/>
			</g>
			<g id="shape64-187" transform="translate(170.079,735.622) rotate(180)">
				<title>工作表.64</title>
				<path d="M0 374.9 L170.08 374.9" class="st12"/>
			</g>
			<g id="shape65-190" transform="translate(-247.339,374.898) rotate(-90)">
				<title>工作表.65</title>
				<path d="M0 374.9 L283.46 374.9" class="st12"/>
			</g>
			<g id="shape66-193" transform="translate(-233.165,374.898) rotate(-90)">
				<title>工作表.66</title>
				<path d="M0 374.9 L283.46 374.9" class="st12"/>
			</g>
			<g id="shape67-196" transform="translate(-261.512,374.898) rotate(-90)">
				<title>工作表.67</title>
				<path d="M0 374.9 L283.46 374.9" class="st12"/>
			</g>
			<g id="shape68-199" transform="translate(-289.858,374.898) rotate(-90)">
				<title>工作表.68</title>
				<path d="M0 374.9 L283.46 374.9" class="st12"/>
			</g>
			<g id="shape69-202" transform="translate(-275.685,374.898) rotate(-90)">
				<title>工作表.69</title>
				<path d="M0 374.9 L283.46 374.9" class="st12"/>
			</g>
			<g id="shape70-205" transform="translate(-304.031,374.898) rotate(-90)">
				<title>工作表.70</title>
				<path d="M0 374.9 L283.46 374.9" class="st12"/>
			</g>
			<g id="shape71-208" transform="translate(-332.378,374.898) rotate(-90)">
				<title>工作表.71</title>
				<path d="M0 374.9 L283.46 374.9" class="st12"/>
			</g>
			<g id="shape72-211" transform="translate(-318.205,374.898) rotate(-90)">
				<title>工作表.72</title>
				<path d="M0 374.9 L283.46 374.9" class="st12"/>
			</g>
			<g id="shape73-214" transform="translate(-346.551,374.898) rotate(-90)">
				<title>工作表.73</title>
				<path d="M0 374.9 L283.46 374.9" class="st12"/>
			</g>
			<g id="shape74-217" transform="translate(-360.724,374.898) rotate(-90)">
				<title>工作表.74</title>
				<path d="M0 374.9 L283.46 374.9" class="st12"/>
			</g>
			<g id="shape75-220" transform="translate(-218.992,374.898) rotate(-90)">
				<title>工作表.75</title>
				<path d="M0 374.9 L283.46 374.9" class="st12"/>
			</g>
		</g>
		<g id="shape111-223" transform="translate(116.67,-254.715)">
			<title>矩形.111</title>
			<rect x="0" y="360.724" width="56.6929" height="14.1732" class="st13"/>
		</g>
		<g id="group76-225" transform="translate(59.977,-42.1166)">
			<title>工作表.76</title>
			<g id="shape77-226" transform="translate(226.772,494.677) rotate(180)">
				<title>工作表.77</title>
				<path d="M0 374.9 L226.77 374.9" class="st12"/>
			</g>
			<g id="shape78-229" transform="translate(226.772,480.504) rotate(180)">
				<title>工作表.78</title>
				<path d="M0 374.9 L226.77 374.9" class="st12"/>
			</g>
			<g id="shape79-232" transform="translate(226.772,508.85) rotate(180)">
				<title>工作表.79</title>
				<path d="M0 374.9 L226.77 374.9" class="st12"/>
			</g>
			<g id="shape80-235" transform="translate(226.772,537.197) rotate(180)">
				<title>工作表.80</title>
				<path d="M0 374.9 L226.77 374.9" class="st12"/>
			</g>
			<g id="shape81-238" transform="translate(226.772,523.024) rotate(180)">
				<title>工作表.81</title>
				<path d="M0 374.9 L226.77 374.9" class="st12"/>
			</g>
			<g id="shape82-241" transform="translate(226.772,551.37) rotate(180)">
				<title>工作表.82</title>
				<path d="M0 374.9 L226.77 374.9" class="st12"/>
			</g>
			<g id="shape83-244" transform="translate(226.772,579.717) rotate(180)">
				<title>工作表.83</title>
				<path d="M0 374.9 L226.77 374.9" class="st12"/>
			</g>
			<g id="shape84-247" transform="translate(226.772,565.543) rotate(180)">
				<title>工作表.84</title>
				<path d="M0 374.9 L226.77 374.9" class="st12"/>
			</g>
			<g id="shape85-250" transform="translate(226.772,593.89) rotate(180)">
				<title>工作表.85</title>
				<path d="M0 374.9 L226.77 374.9" class="st12"/>
			</g>
			<g id="shape86-253" transform="translate(226.772,622.236) rotate(180)">
				<title>工作表.86</title>
				<path d="M0 374.9 L226.77 374.9" class="st12"/>
			</g>
			<g id="shape87-256" transform="translate(226.772,608.063) rotate(180)">
				<title>工作表.87</title>
				<path d="M0 374.9 L226.77 374.9" class="st12"/>
			</g>
			<g id="shape88-259" transform="translate(226.772,636.409) rotate(180)">
				<title>工作表.88</title>
				<path d="M0 374.9 L226.77 374.9" class="st12"/>
			</g>
			<g id="shape89-262" transform="translate(226.772,664.756) rotate(180)">
				<title>工作表.89</title>
				<path d="M0 374.9 L226.77 374.9" class="st12"/>
			</g>
			<g id="shape90-265" transform="translate(226.772,650.583) rotate(180)">
				<title>工作表.90</title>
				<path d="M0 374.9 L226.77 374.9" class="st12"/>
			</g>
			<g id="shape91-268" transform="translate(226.772,678.929) rotate(180)">
				<title>工作表.91</title>
				<path d="M0 374.9 L226.77 374.9" class="st12"/>
			</g>
			<g id="shape92-271" transform="translate(226.772,707.276) rotate(180)">
				<title>工作表.92</title>
				<path d="M0 374.9 L226.77 374.9" class="st12"/>
			</g>
			<g id="shape93-274" transform="translate(226.772,693.102) rotate(180)">
				<title>工作表.93</title>
				<path d="M0 374.9 L226.77 374.9" class="st12"/>
			</g>
			<g id="shape94-277" transform="translate(226.772,721.449) rotate(180)">
				<title>工作表.94</title>
				<path d="M0 374.9 L226.77 374.9" class="st12"/>
			</g>
			<g id="shape95-280" transform="translate(226.772,735.622) rotate(180)">
				<title>工作表.95</title>
				<path d="M0 374.9 L226.77 374.9" class="st12"/>
			</g>
			<g id="shape96-283" transform="translate(-247.339,374.898) rotate(-90)">
				<title>工作表.96</title>
				<path d="M0 374.9 L283.46 374.9" class="st12"/>
			</g>
			<g id="shape97-286" transform="translate(-233.165,374.898) rotate(-90)">
				<title>工作表.97</title>
				<path d="M0 374.9 L283.46 374.9" class="st12"/>
			</g>
			<g id="shape98-289" transform="translate(-261.512,374.898) rotate(-90)">
				<title>工作表.98</title>
				<path d="M0 374.9 L283.46 374.9" class="st12"/>
			</g>
			<g id="shape99-292" transform="translate(-289.858,374.898) rotate(-90)">
				<title>工作表.99</title>
				<path d="M0 374.9 L283.46 374.9" class="st12"/>
			</g>
			<g id="shape100-295" transform="translate(-275.685,374.898) rotate(-90)">
				<title>工作表.100</title>
				<path d="M0 374.9 L283.46 374.9" class="st12"/>
			</g>
			<g id="shape101-298" transform="translate(-304.031,374.898) rotate(-90)">
				<title>工作表.101</title>
				<path d="M0 374.9 L283.46 374.9" class="st12"/>
			</g>
			<g id="shape102-301" transform="translate(-332.378,374.898) rotate(-90)">
				<title>工作表.102</title>
				<path d="M0 374.9 L283.46 374.9" class="st12"/>
			</g>
			<g id="shape103-304" transform="translate(-318.205,374.898) rotate(-90)">
				<title>工作表.103</title>
				<path d="M0 374.9 L283.46 374.9" class="st12"/>
			</g>
			<g id="shape104-307" transform="translate(-346.551,374.898) rotate(-90)">
				<title>工作表.104</title>
				<path d="M0 374.9 L283.46 374.9" class="st12"/>
			</g>
			<g id="shape105-310" transform="translate(-360.724,374.898) rotate(-90)">
				<title>工作表.105</title>
				<path d="M0 374.9 L283.46 374.9" class="st12"/>
			</g>
			<g id="shape106-313" transform="translate(-190.646,374.898) rotate(-90)">
				<title>工作表.106</title>
				<path d="M0 374.9 L283.46 374.9" class="st12"/>
			</g>
			<g id="shape107-316" transform="translate(-176.472,374.898) rotate(-90)">
				<title>工作表.107</title>
				<path d="M0 374.9 L283.46 374.9" class="st12"/>
			</g>
			<g id="shape108-319" transform="translate(-204.819,374.898) rotate(-90)">
				<title>工作表.108</title>
				<path d="M0 374.9 L283.46 374.9" class="st12"/>
			</g>
			<g id="shape109-322" transform="translate(-218.992,374.898) rotate(-90)">
				<title>工作表.109</title>
				<path d="M0 374.9 L283.46 374.9" class="st12"/>
			</g>
			<g id="shape110-325" transform="translate(-162.299,374.898) rotate(-90)">
				<title>工作表.110</title>
				<path d="M0 374.9 L283.46 374.9" class="st12"/>
			</g>
		</g>
	</g>
</svg>
