<?xml version="1.0" encoding="UTF-8" standalone="no"?>
<!DOCTYPE svg PUBLIC "-//W3C//DTD SVG 1.1//EN" "http://www.w3.org/Graphics/SVG/1.1/DTD/svg11.dtd">
<!-- 由 Microsoft Visio, SVG Export 生成 4x4-reduce.svg 页-1 -->
<svg xmlns="http://www.w3.org/2000/svg" xmlns:xlink="http://www.w3.org/1999/xlink" xmlns:ev="http://www.w3.org/2001/xml-events"
		xmlns:v="http://schemas.microsoft.com/visio/2003/SVGExtensions/" width="13.0412in" height="5.20691in"
		viewBox="0 0 938.967 374.898" xml:space="preserve" color-interpolation-filters="sRGB" class="st16">
	<v:documentProperties v:langID="2052" v:metric="true" v:viewMarkup="false"/>

	<style type="text/css">
	<![CDATA[
		.st1 {fill:none;stroke:none;stroke-width:0.25}
		.st2 {fill:#000000;font-family:Calibri;font-size:4.99999em}
		.st3 {fill:#000000;font-family:Calibri;font-size:3em}
		.st4 {fill:#000000;font-family:Calibri;font-size:1.99999em}
		.st5 {visibility:visible}
		.st6 {fill:#5b9bd5;fill-opacity:0.22;filter:url(#filter_2);stroke:#5b9bd5;stroke-opacity:0.22}
		.st7 {fill:#e2efd9;stroke:#000000;stroke-width:1}
		.st8 {fill:#fff2cc;stroke:#000000;stroke-width:1}
		.st9 {fill:#fbe5d5;stroke:#000000;stroke-width:1}
		.st10 {fill:#ffd965;stroke:#000000;stroke-width:0.5}
		.st11 {fill:#a8d08d;stroke:#000000;stroke-width:0.5}
		.st12 {fill:#538135;stroke:#000000;stroke-width:0.5}
		.st13 {stroke:#000000;stroke-dasharray:0.25,0.5;stroke-linecap:round;stroke-linejoin:round;stroke-width:0.25}
		.st14 {fill:#bf9000;stroke:#000000;stroke-width:0.5}
		.st15 {fill:#c55a11;stroke:#000000;stroke-width:0.5}
		.st16 {fill:none;fill-rule:evenodd;font-size:12px;overflow:visible;stroke-linecap:square;stroke-miterlimit:3}
	]]>
	</style>

	<defs id="Filters">
		<filter id="filter_2">
			<feGaussianBlur stdDeviation="2"/>
		</filter>
	</defs>
	<g v:mID="0" v:index="1" v:groupContext="foregroundPage">
		<title>页-1</title>
		<v:pageProperties v:drawingScale="0.0393701" v:pageScale="0.0393701" v:drawingUnits="24" v:shadowOffsetX="8.50394"
				v:shadowOffsetY="-8.50394"/>
		<g id="shape1-1" v:mID="1" v:groupContext="shape" transform="translate(309.027,-170.306)">
			<title>工作表.1</title>
			<desc>=</desc>
			<v:textBlock v:margins="rect(4,4,4,4)" v:tabSpace="42.5197"/>
			<v:textRect cx="22.7769" cy="364.898" width="45.56" height="20"/>
			<rect x="0" y="354.898" width="45.5538" height="20" class="st1"/>
			<text x="7.84" y="382.9" class="st2" v:langID="1033"><v:paragraph v:horizAlign="1"/><v:tabList/>=</text>		</g>
		<g id="shape2-4" v:mID="2" v:groupContext="shape" transform="translate(599.578,-170.306)">
			<title>工作表.2</title>
			<desc>×</desc>
			<v:textBlock v:margins="rect(4,4,4,4)" v:tabSpace="42.5197"/>
			<v:textRect cx="22.7769" cy="364.898" width="45.56" height="20"/>
			<rect x="0" y="354.898" width="45.5538" height="20" class="st1"/>
			<text x="7.84" y="382.9" class="st2" v:langID="1033"><v:paragraph v:horizAlign="1"/><v:tabList/>×</text>		</g>
		<g id="shape3-7" v:mID="3" v:groupContext="shape" transform="translate(473.536,-343.298)">
			<title>工作表.3</title>
			<desc>A</desc>
			<v:textBlock v:margins="rect(4,4,4,4)" v:tabSpace="42.5197"/>
			<v:textRect cx="22.7769" cy="364.898" width="45.56" height="20"/>
			<rect x="0" y="354.898" width="45.5538" height="20" class="st1"/>
			<text x="12.36" y="375.7" class="st3" v:langID="2052"><v:paragraph v:horizAlign="1"/><v:tabList/>A</text>		</g>
		<g id="shape4-10" v:mID="4" v:groupContext="shape" transform="translate(757.001,-302.038)">
			<title>工作表.4</title>
			<desc>B</desc>
			<v:textBlock v:margins="rect(4,4,4,4)" v:tabSpace="42.5197"/>
			<v:textRect cx="22.7769" cy="364.898" width="45.56" height="20"/>
			<rect x="0" y="354.898" width="45.5538" height="20" class="st1"/>
			<text x="12.99" y="375.7" class="st3" v:langID="2052"><v:paragraph v:horizAlign="1"/><v:tabList/>B</text>		</g>
		<g id="shape5-13" v:mID="5" v:groupContext="shape" transform="translate(147.552,-343.298)">
			<title>工作表.5</title>
			<desc>C</desc>
			<v:textBlock v:margins="rect(4,4,4,4)" v:tabSpace="42.5197"/>
			<v:textRect cx="22.7769" cy="364.898" width="45.56" height="20"/>
			<rect x="0" y="354.898" width="45.5538" height="20" class="st1"/>
			<text x="13.18" y="375.7" class="st3" v:langID="2052"><v:paragraph v:horizAlign="1"/><v:tabList/>C</text>		</g>
		<g id="shape6-16" v:mID="6" v:groupContext="shape" transform="translate(0.25,-170.306)">
			<title>工作表.6</title>
			<desc>M</desc>
			<v:textBlock v:margins="rect(4,4,4,4)" v:tabSpace="42.5197"/>
			<v:textRect cx="22.7769" cy="364.898" width="45.56" height="20"/>
			<rect x="0" y="354.898" width="45.5538" height="20" class="st1"/>
			<text x="12.52" y="372.1" class="st4" v:langID="2052"><v:paragraph v:horizAlign="1"/><v:tabList/>M</text>		</g>
		<g id="shape7-19" v:mID="7" v:groupContext="shape" transform="translate(147.552,-4.40009)">
			<title>工作表.7</title>
			<desc>N</desc>
			<v:textBlock v:margins="rect(4,4,4,4)" v:tabSpace="42.5197"/>
			<v:textRect cx="22.7769" cy="364.898" width="45.56" height="20"/>
			<rect x="0" y="354.898" width="45.5538" height="20" class="st1"/>
			<text x="15.03" y="372.1" class="st4" v:langID="2052"><v:paragraph v:horizAlign="1"/><v:tabList/>N</text>		</g>
		<g id="shape8-22" v:mID="8" v:groupContext="shape" transform="translate(757.001,-66.9198)">
			<title>工作表.8</title>
			<desc>N</desc>
			<v:textBlock v:margins="rect(4,4,4,4)" v:tabSpace="42.5197"/>
			<v:textRect cx="22.7769" cy="364.898" width="45.56" height="20"/>
			<rect x="0" y="354.898" width="45.5538" height="20" class="st1"/>
			<text x="15.03" y="372.1" class="st4" v:langID="2052"><v:paragraph v:horizAlign="1"/><v:tabList/>N</text>		</g>
		<g id="shape9-25" v:mID="9" v:groupContext="shape" transform="translate(473.536,-4.40009)">
			<title>工作表.9</title>
			<desc>K</desc>
			<v:textBlock v:margins="rect(4,4,4,4)" v:tabSpace="42.5197"/>
			<v:textRect cx="22.7769" cy="364.898" width="45.56" height="20"/>
			<rect x="0" y="354.898" width="45.5538" height="20" class="st1"/>
			<text x="16.54" y="372.1" class="st4" v:langID="2052"><v:paragraph v:horizAlign="1"/><v:tabList/>K</text>		</g>
		<g id="shape10-28" v:mID="10" v:groupContext="shape" transform="translate(893.163,-170.306)">
			<title>工作表.10</title>
			<desc>K</desc>
			<v:textBlock v:margins="rect(4,4,4,4)" v:tabSpace="42.5197"/>
			<v:textRect cx="22.7769" cy="364.898" width="45.56" height="20"/>
			<rect x="0" y="354.898" width="45.5538" height="20" class="st1"/>
			<text x="16.54" y="372.1" class="st4" v:langID="2052"><v:paragraph v:horizAlign="1"/><v:tabList/>K</text>		</g>
		<g id="shape11-31" v:mID="11" v:groupContext="shape" transform="translate(368.754,-129.046)">
			<title>工作表.11</title>
			<desc>M</desc>
			<v:textBlock v:margins="rect(4,4,4,4)" v:tabSpace="42.5197"/>
			<v:textRect cx="22.7769" cy="364.898" width="45.56" height="20"/>
			<rect x="0" y="354.898" width="45.5538" height="20" class="st1"/>
			<text x="12.52" y="372.1" class="st4" v:langID="2052"><v:paragraph v:horizAlign="1"/><v:tabList/>M</text>		</g>
		<g id="shape12-34" v:mID="12" v:groupContext="shape" transform="translate(669.426,-98.8095)">
			<title>矩形.2</title>
			<v:userDefs>
				<v:ud v:nameU="visVersion" v:val="VT0(15):26"/>
			</v:userDefs>
			<g id="shadow12-35" v:groupContext="shadow" v:shadowOffsetX="0.345598" v:shadowOffsetY="-1.97279" v:shadowType="1"
					transform="matrix(1,0,0,1,0.345598,1.97279)" class="st5">
				<rect x="0" y="204.819" width="226.772" height="170.079" class="st6"/>
			</g>
			<rect x="0" y="204.819" width="226.772" height="170.079" class="st7"/>
		</g>
		<g id="shape13-39" v:mID="13" v:groupContext="shape" transform="translate(414.308,-42.1166)">
			<title>矩形.150</title>
			<v:userDefs>
				<v:ud v:nameU="visVersion" v:val="VT0(15):26"/>
			</v:userDefs>
			<g id="shadow13-40" v:groupContext="shadow" v:shadowOffsetX="0.345598" v:shadowOffsetY="-1.97279" v:shadowType="1"
					transform="matrix(1,0,0,1,0.345598,1.97279)" class="st5">
				<rect x="0" y="91.4331" width="170.079" height="283.465" class="st6"/>
			</g>
			<rect x="0" y="91.4331" width="170.079" height="283.465" class="st8"/>
		</g>
		<g id="shape14-44" v:mID="14" v:groupContext="shape" transform="translate(59.977,-42.1166)">
			<title>矩形.4</title>
			<v:userDefs>
				<v:ud v:nameU="visVersion" v:val="VT0(15):26"/>
			</v:userDefs>
			<g id="shadow14-45" v:groupContext="shadow" v:shadowOffsetX="0.345598" v:shadowOffsetY="-1.97279" v:shadowType="1"
					transform="matrix(1,0,0,1,0.345598,1.97279)" class="st5">
				<rect x="0" y="91.4331" width="226.772" height="283.465" class="st6"/>
			</g>
			<rect x="0" y="91.4331" width="226.772" height="283.465" class="st9"/>
		</g>
		<g id="shape15-49" v:mID="15" v:groupContext="shape" transform="translate(414.308,-212.195)">
			<title>矩形.221</title>
			<v:userDefs>
				<v:ud v:nameU="visVersion" v:val="VT0(15):26"/>
			</v:userDefs>
			<rect x="0" y="318.205" width="170.079" height="56.6929" class="st10"/>
		</g>
		<g id="shape16-51" v:mID="16" v:groupContext="shape" transform="translate(1101.02,106.009) rotate(90)">
			<title>矩形.222</title>
			<v:userDefs>
				<v:ud v:nameU="visVersion" v:val="VT0(15):26"/>
			</v:userDefs>
			<rect x="0" y="318.205" width="170.079" height="56.6929" class="st11"/>
		</g>
		<g id="shape112-53" v:mID="112" v:groupContext="shape" transform="translate(726.119,-155.502)">
			<title>矩形.112</title>
			<v:userDefs>
				<v:ud v:nameU="visVersion" v:val="VT0(15):26"/>
			</v:userDefs>
			<rect x="0" y="318.205" width="56.6929" height="56.6929" class="st12"/>
		</g>
		<g id="group17-55" transform="translate(669.426,-98.8095)" v:mID="17" v:groupContext="group">
			<title>工作表.17</title>
			<g id="shape18-56" v:mID="18" v:groupContext="shape" transform="translate(-247.339,374.898) rotate(-90)">
				<title>工作表.18</title>
				<path d="M0 374.9 L170.08 374.9" class="st13"/>
			</g>
			<g id="shape19-59" v:mID="19" v:groupContext="shape" transform="translate(-233.165,374.898) rotate(-90)">
				<title>工作表.19</title>
				<path d="M0 374.9 L170.08 374.9" class="st13"/>
			</g>
			<g id="shape20-62" v:mID="20" v:groupContext="shape" transform="translate(-261.512,374.898) rotate(-90)">
				<title>工作表.20</title>
				<path d="M0 374.9 L170.08 374.9" class="st13"/>
			</g>
			<g id="shape21-65" v:mID="21" v:groupContext="shape" transform="translate(-289.858,374.898) rotate(-90)">
				<title>工作表.21</title>
				<path d="M0 374.9 L170.08 374.9" class="st13"/>
			</g>
			<g id="shape22-68" v:mID="22" v:groupContext="shape" transform="translate(-275.685,374.898) rotate(-90)">
				<title>工作表.22</title>
				<path d="M0 374.9 L170.08 374.9" class="st13"/>
			</g>
			<g id="shape23-71" v:mID="23" v:groupContext="shape" transform="translate(-304.031,374.898) rotate(-90)">
				<title>工作表.23</title>
				<path d="M0 374.9 L170.08 374.9" class="st13"/>
			</g>
			<g id="shape24-74" v:mID="24" v:groupContext="shape" transform="translate(-332.378,374.898) rotate(-90)">
				<title>工作表.24</title>
				<path d="M0 374.9 L170.08 374.9" class="st13"/>
			</g>
			<g id="shape25-77" v:mID="25" v:groupContext="shape" transform="translate(-318.205,374.898) rotate(-90)">
				<title>工作表.25</title>
				<path d="M0 374.9 L170.08 374.9" class="st13"/>
			</g>
			<g id="shape26-80" v:mID="26" v:groupContext="shape" transform="translate(-346.551,374.898) rotate(-90)">
				<title>工作表.26</title>
				<path d="M0 374.9 L170.08 374.9" class="st13"/>
			</g>
			<g id="shape27-83" v:mID="27" v:groupContext="shape" transform="translate(-360.724,374.898) rotate(-90)">
				<title>工作表.27</title>
				<path d="M0 374.9 L170.08 374.9" class="st13"/>
			</g>
			<g id="shape28-86" v:mID="28" v:groupContext="shape" transform="translate(-190.646,374.898) rotate(-90)">
				<title>工作表.28</title>
				<path d="M0 374.9 L170.08 374.9" class="st13"/>
			</g>
			<g id="shape29-89" v:mID="29" v:groupContext="shape" transform="translate(-176.472,374.898) rotate(-90)">
				<title>工作表.29</title>
				<path d="M0 374.9 L170.08 374.9" class="st13"/>
			</g>
			<g id="shape30-92" v:mID="30" v:groupContext="shape" transform="translate(-204.819,374.898) rotate(-90)">
				<title>工作表.30</title>
				<path d="M0 374.9 L170.08 374.9" class="st13"/>
			</g>
			<g id="shape31-95" v:mID="31" v:groupContext="shape" transform="translate(-218.992,374.898) rotate(-90)">
				<title>工作表.31</title>
				<path d="M0 374.9 L170.08 374.9" class="st13"/>
			</g>
			<g id="shape32-98" v:mID="32" v:groupContext="shape" transform="translate(-162.299,374.898) rotate(-90)">
				<title>工作表.32</title>
				<path d="M0 374.9 L170.08 374.9" class="st13"/>
			</g>
			<g id="shape33-101" v:mID="33" v:groupContext="shape" transform="translate(226.772,608.063) rotate(180)">
				<title>工作表.33</title>
				<path d="M0 374.9 L226.77 374.9" class="st13"/>
			</g>
			<g id="shape34-104" v:mID="34" v:groupContext="shape" transform="translate(226.772,593.89) rotate(180)">
				<title>工作表.34</title>
				<path d="M0 374.9 L226.77 374.9" class="st13"/>
			</g>
			<g id="shape35-107" v:mID="35" v:groupContext="shape" transform="translate(226.772,622.236) rotate(180)">
				<title>工作表.35</title>
				<path d="M0 374.9 L226.77 374.9" class="st13"/>
			</g>
			<g id="shape36-110" v:mID="36" v:groupContext="shape" transform="translate(226.772,650.583) rotate(180)">
				<title>工作表.36</title>
				<path d="M0 374.9 L226.77 374.9" class="st13"/>
			</g>
			<g id="shape37-113" v:mID="37" v:groupContext="shape" transform="translate(226.772,636.409) rotate(180)">
				<title>工作表.37</title>
				<path d="M0 374.9 L226.77 374.9" class="st13"/>
			</g>
			<g id="shape38-116" v:mID="38" v:groupContext="shape" transform="translate(226.772,664.756) rotate(180)">
				<title>工作表.38</title>
				<path d="M0 374.9 L226.77 374.9" class="st13"/>
			</g>
			<g id="shape39-119" v:mID="39" v:groupContext="shape" transform="translate(226.772,693.102) rotate(180)">
				<title>工作表.39</title>
				<path d="M0 374.9 L226.77 374.9" class="st13"/>
			</g>
			<g id="shape40-122" v:mID="40" v:groupContext="shape" transform="translate(226.772,678.929) rotate(180)">
				<title>工作表.40</title>
				<path d="M0 374.9 L226.77 374.9" class="st13"/>
			</g>
			<g id="shape41-125" v:mID="41" v:groupContext="shape" transform="translate(226.772,707.276) rotate(180)">
				<title>工作表.41</title>
				<path d="M0 374.9 L226.77 374.9" class="st13"/>
			</g>
			<g id="shape42-128" v:mID="42" v:groupContext="shape" transform="translate(226.772,721.449) rotate(180)">
				<title>工作表.42</title>
				<path d="M0 374.9 L226.77 374.9" class="st13"/>
			</g>
			<g id="shape43-131" v:mID="43" v:groupContext="shape" transform="translate(226.772,735.622) rotate(180)">
				<title>工作表.43</title>
				<path d="M0 374.9 L226.77 374.9" class="st13"/>
			</g>
		</g>
		<g id="shape111-134" v:mID="111" v:groupContext="shape" transform="translate(471.001,-212.195)">
			<title>矩形.111</title>
			<v:userDefs>
				<v:ud v:nameU="visVersion" v:val="VT0(15):26"/>
			</v:userDefs>
			<rect x="0" y="318.205" width="56.6929" height="56.6929" class="st14"/>
		</g>
		<g id="group44-136" transform="translate(414.308,-42.1166)" v:mID="44" v:groupContext="group">
			<title>工作表.44</title>
			<g id="shape45-137" v:mID="45" v:groupContext="shape" transform="translate(170.079,494.677) rotate(180)">
				<title>工作表.45</title>
				<path d="M0 374.9 L170.08 374.9" class="st13"/>
			</g>
			<g id="shape46-140" v:mID="46" v:groupContext="shape" transform="translate(170.079,480.504) rotate(180)">
				<title>工作表.46</title>
				<path d="M0 374.9 L170.08 374.9" class="st13"/>
			</g>
			<g id="shape47-143" v:mID="47" v:groupContext="shape" transform="translate(170.079,508.85) rotate(180)">
				<title>工作表.47</title>
				<path d="M0 374.9 L170.08 374.9" class="st13"/>
			</g>
			<g id="shape48-146" v:mID="48" v:groupContext="shape" transform="translate(170.079,537.197) rotate(180)">
				<title>工作表.48</title>
				<path d="M0 374.9 L170.08 374.9" class="st13"/>
			</g>
			<g id="shape49-149" v:mID="49" v:groupContext="shape" transform="translate(170.079,523.024) rotate(180)">
				<title>工作表.49</title>
				<path d="M0 374.9 L170.08 374.9" class="st13"/>
			</g>
			<g id="shape50-152" v:mID="50" v:groupContext="shape" transform="translate(170.079,551.37) rotate(180)">
				<title>工作表.50</title>
				<path d="M0 374.9 L170.08 374.9" class="st13"/>
			</g>
			<g id="shape51-155" v:mID="51" v:groupContext="shape" transform="translate(170.079,579.717) rotate(180)">
				<title>工作表.51</title>
				<path d="M0 374.9 L170.08 374.9" class="st13"/>
			</g>
			<g id="shape52-158" v:mID="52" v:groupContext="shape" transform="translate(170.079,565.543) rotate(180)">
				<title>工作表.52</title>
				<path d="M0 374.9 L170.08 374.9" class="st13"/>
			</g>
			<g id="shape53-161" v:mID="53" v:groupContext="shape" transform="translate(170.079,593.89) rotate(180)">
				<title>工作表.53</title>
				<path d="M0 374.9 L170.08 374.9" class="st13"/>
			</g>
			<g id="shape54-164" v:mID="54" v:groupContext="shape" transform="translate(170.079,622.236) rotate(180)">
				<title>工作表.54</title>
				<path d="M0 374.9 L170.08 374.9" class="st13"/>
			</g>
			<g id="shape55-167" v:mID="55" v:groupContext="shape" transform="translate(170.079,608.063) rotate(180)">
				<title>工作表.55</title>
				<path d="M0 374.9 L170.08 374.9" class="st13"/>
			</g>
			<g id="shape56-170" v:mID="56" v:groupContext="shape" transform="translate(170.079,636.409) rotate(180)">
				<title>工作表.56</title>
				<path d="M0 374.9 L170.08 374.9" class="st13"/>
			</g>
			<g id="shape57-173" v:mID="57" v:groupContext="shape" transform="translate(170.079,664.756) rotate(180)">
				<title>工作表.57</title>
				<path d="M0 374.9 L170.08 374.9" class="st13"/>
			</g>
			<g id="shape58-176" v:mID="58" v:groupContext="shape" transform="translate(170.079,650.583) rotate(180)">
				<title>工作表.58</title>
				<path d="M0 374.9 L170.08 374.9" class="st13"/>
			</g>
			<g id="shape59-179" v:mID="59" v:groupContext="shape" transform="translate(170.079,678.929) rotate(180)">
				<title>工作表.59</title>
				<path d="M0 374.9 L170.08 374.9" class="st13"/>
			</g>
			<g id="shape60-182" v:mID="60" v:groupContext="shape" transform="translate(170.079,707.276) rotate(180)">
				<title>工作表.60</title>
				<path d="M0 374.9 L170.08 374.9" class="st13"/>
			</g>
			<g id="shape61-185" v:mID="61" v:groupContext="shape" transform="translate(170.079,693.102) rotate(180)">
				<title>工作表.61</title>
				<path d="M0 374.9 L170.08 374.9" class="st13"/>
			</g>
			<g id="shape62-188" v:mID="62" v:groupContext="shape" transform="translate(170.079,721.449) rotate(180)">
				<title>工作表.62</title>
				<path d="M0 374.9 L170.08 374.9" class="st13"/>
			</g>
			<g id="shape63-191" v:mID="63" v:groupContext="shape" transform="translate(170.079,735.622) rotate(180)">
				<title>工作表.63</title>
				<path d="M0 374.9 L170.08 374.9" class="st13"/>
			</g>
			<g id="shape64-194" v:mID="64" v:groupContext="shape" transform="translate(-247.339,374.898) rotate(-90)">
				<title>工作表.64</title>
				<path d="M0 374.9 L283.46 374.9" class="st13"/>
			</g>
			<g id="shape65-197" v:mID="65" v:groupContext="shape" transform="translate(-233.165,374.898) rotate(-90)">
				<title>工作表.65</title>
				<path d="M0 374.9 L283.46 374.9" class="st13"/>
			</g>
			<g id="shape66-200" v:mID="66" v:groupContext="shape" transform="translate(-261.512,374.898) rotate(-90)">
				<title>工作表.66</title>
				<path d="M0 374.9 L283.46 374.9" class="st13"/>
			</g>
			<g id="shape67-203" v:mID="67" v:groupContext="shape" transform="translate(-289.858,374.898) rotate(-90)">
				<title>工作表.67</title>
				<path d="M0 374.9 L283.46 374.9" class="st13"/>
			</g>
			<g id="shape68-206" v:mID="68" v:groupContext="shape" transform="translate(-275.685,374.898) rotate(-90)">
				<title>工作表.68</title>
				<path d="M0 374.9 L283.46 374.9" class="st13"/>
			</g>
			<g id="shape69-209" v:mID="69" v:groupContext="shape" transform="translate(-304.031,374.898) rotate(-90)">
				<title>工作表.69</title>
				<path d="M0 374.9 L283.46 374.9" class="st13"/>
			</g>
			<g id="shape70-212" v:mID="70" v:groupContext="shape" transform="translate(-332.378,374.898) rotate(-90)">
				<title>工作表.70</title>
				<path d="M0 374.9 L283.46 374.9" class="st13"/>
			</g>
			<g id="shape71-215" v:mID="71" v:groupContext="shape" transform="translate(-318.205,374.898) rotate(-90)">
				<title>工作表.71</title>
				<path d="M0 374.9 L283.46 374.9" class="st13"/>
			</g>
			<g id="shape72-218" v:mID="72" v:groupContext="shape" transform="translate(-346.551,374.898) rotate(-90)">
				<title>工作表.72</title>
				<path d="M0 374.9 L283.46 374.9" class="st13"/>
			</g>
			<g id="shape73-221" v:mID="73" v:groupContext="shape" transform="translate(-360.724,374.898) rotate(-90)">
				<title>工作表.73</title>
				<path d="M0 374.9 L283.46 374.9" class="st13"/>
			</g>
			<g id="shape74-224" v:mID="74" v:groupContext="shape" transform="translate(-218.992,374.898) rotate(-90)">
				<title>工作表.74</title>
				<path d="M0 374.9 L283.46 374.9" class="st13"/>
			</g>
		</g>
		<g id="shape75-227" v:mID="75" v:groupContext="shape" transform="translate(116.67,-212.195)">
			<title>矩形.75</title>
			<v:userDefs>
				<v:ud v:nameU="visVersion" v:val="VT0(15):26"/>
			</v:userDefs>
			<rect x="0" y="318.205" width="56.6929" height="56.6929" class="st15"/>
		</g>
		<g id="group76-229" transform="translate(59.977,-42.1166)" v:mID="76" v:groupContext="group">
			<title>工作表.76</title>
			<g id="shape77-230" v:mID="77" v:groupContext="shape" transform="translate(226.772,494.677) rotate(180)">
				<title>工作表.77</title>
				<path d="M0 374.9 L226.77 374.9" class="st13"/>
			</g>
			<g id="shape78-233" v:mID="78" v:groupContext="shape" transform="translate(226.772,480.504) rotate(180)">
				<title>工作表.78</title>
				<path d="M0 374.9 L226.77 374.9" class="st13"/>
			</g>
			<g id="shape79-236" v:mID="79" v:groupContext="shape" transform="translate(226.772,508.85) rotate(180)">
				<title>工作表.79</title>
				<path d="M0 374.9 L226.77 374.9" class="st13"/>
			</g>
			<g id="shape80-239" v:mID="80" v:groupContext="shape" transform="translate(226.772,537.197) rotate(180)">
				<title>工作表.80</title>
				<path d="M0 374.9 L226.77 374.9" class="st13"/>
			</g>
			<g id="shape81-242" v:mID="81" v:groupContext="shape" transform="translate(226.772,523.024) rotate(180)">
				<title>工作表.81</title>
				<path d="M0 374.9 L226.77 374.9" class="st13"/>
			</g>
			<g id="shape82-245" v:mID="82" v:groupContext="shape" transform="translate(226.772,551.37) rotate(180)">
				<title>工作表.82</title>
				<path d="M0 374.9 L226.77 374.9" class="st13"/>
			</g>
			<g id="shape83-248" v:mID="83" v:groupContext="shape" transform="translate(226.772,579.717) rotate(180)">
				<title>工作表.83</title>
				<path d="M0 374.9 L226.77 374.9" class="st13"/>
			</g>
			<g id="shape84-251" v:mID="84" v:groupContext="shape" transform="translate(226.772,565.543) rotate(180)">
				<title>工作表.84</title>
				<path d="M0 374.9 L226.77 374.9" class="st13"/>
			</g>
			<g id="shape85-254" v:mID="85" v:groupContext="shape" transform="translate(226.772,593.89) rotate(180)">
				<title>工作表.85</title>
				<path d="M0 374.9 L226.77 374.9" class="st13"/>
			</g>
			<g id="shape86-257" v:mID="86" v:groupContext="shape" transform="translate(226.772,622.236) rotate(180)">
				<title>工作表.86</title>
				<path d="M0 374.9 L226.77 374.9" class="st13"/>
			</g>
			<g id="shape87-260" v:mID="87" v:groupContext="shape" transform="translate(226.772,608.063) rotate(180)">
				<title>工作表.87</title>
				<path d="M0 374.9 L226.77 374.9" class="st13"/>
			</g>
			<g id="shape88-263" v:mID="88" v:groupContext="shape" transform="translate(226.772,636.409) rotate(180)">
				<title>工作表.88</title>
				<path d="M0 374.9 L226.77 374.9" class="st13"/>
			</g>
			<g id="shape89-266" v:mID="89" v:groupContext="shape" transform="translate(226.772,664.756) rotate(180)">
				<title>工作表.89</title>
				<path d="M0 374.9 L226.77 374.9" class="st13"/>
			</g>
			<g id="shape90-269" v:mID="90" v:groupContext="shape" transform="translate(226.772,650.583) rotate(180)">
				<title>工作表.90</title>
				<path d="M0 374.9 L226.77 374.9" class="st13"/>
			</g>
			<g id="shape91-272" v:mID="91" v:groupContext="shape" transform="translate(226.772,678.929) rotate(180)">
				<title>工作表.91</title>
				<path d="M0 374.9 L226.77 374.9" class="st13"/>
			</g>
			<g id="shape92-275" v:mID="92" v:groupContext="shape" transform="translate(226.772,707.276) rotate(180)">
				<title>工作表.92</title>
				<path d="M0 374.9 L226.77 374.9" class="st13"/>
			</g>
			<g id="shape93-278" v:mID="93" v:groupContext="shape" transform="translate(226.772,693.102) rotate(180)">
				<title>工作表.93</title>
				<path d="M0 374.9 L226.77 374.9" class="st13"/>
			</g>
			<g id="shape94-281" v:mID="94" v:groupContext="shape" transform="translate(226.772,721.449) rotate(180)">
				<title>工作表.94</title>
				<path d="M0 374.9 L226.77 374.9" class="st13"/>
			</g>
			<g id="shape95-284" v:mID="95" v:groupContext="shape" transform="translate(226.772,735.622) rotate(180)">
				<title>工作表.95</title>
				<path d="M0 374.9 L226.77 374.9" class="st13"/>
			</g>
			<g id="shape96-287" v:mID="96" v:groupContext="shape" transform="translate(-247.339,374.898) rotate(-90)">
				<title>工作表.96</title>
				<path d="M0 374.9 L283.46 374.9" class="st13"/>
			</g>
			<g id="shape97-290" v:mID="97" v:groupContext="shape" transform="translate(-233.165,374.898) rotate(-90)">
				<title>工作表.97</title>
				<path d="M0 374.9 L283.46 374.9" class="st13"/>
			</g>
			<g id="shape98-293" v:mID="98" v:groupContext="shape" transform="translate(-261.512,374.898) rotate(-90)">
				<title>工作表.98</title>
				<path d="M0 374.9 L283.46 374.9" class="st13"/>
			</g>
			<g id="shape99-296" v:mID="99" v:groupContext="shape" transform="translate(-289.858,374.898) rotate(-90)">
				<title>工作表.99</title>
				<path d="M0 374.9 L283.46 374.9" class="st13"/>
			</g>
			<g id="shape100-299" v:mID="100" v:groupContext="shape" transform="translate(-275.685,374.898) rotate(-90)">
				<title>工作表.100</title>
				<path d="M0 374.9 L283.46 374.9" class="st13"/>
			</g>
			<g id="shape101-302" v:mID="101" v:groupContext="shape" transform="translate(-304.031,374.898) rotate(-90)">
				<title>工作表.101</title>
				<path d="M0 374.9 L283.46 374.9" class="st13"/>
			</g>
			<g id="shape102-305" v:mID="102" v:groupContext="shape" transform="translate(-332.378,374.898) rotate(-90)">
				<title>工作表.102</title>
				<path d="M0 374.9 L283.46 374.9" class="st13"/>
			</g>
			<g id="shape103-308" v:mID="103" v:groupContext="shape" transform="translate(-318.205,374.898) rotate(-90)">
				<title>工作表.103</title>
				<path d="M0 374.9 L283.46 374.9" class="st13"/>
			</g>
			<g id="shape104-311" v:mID="104" v:groupContext="shape" transform="translate(-346.551,374.898) rotate(-90)">
				<title>工作表.104</title>
				<path d="M0 374.9 L283.46 374.9" class="st13"/>
			</g>
			<g id="shape105-314" v:mID="105" v:groupContext="shape" transform="translate(-360.724,374.898) rotate(-90)">
				<title>工作表.105</title>
				<path d="M0 374.9 L283.46 374.9" class="st13"/>
			</g>
			<g id="shape106-317" v:mID="106" v:groupContext="shape" transform="translate(-190.646,374.898) rotate(-90)">
				<title>工作表.106</title>
				<path d="M0 374.9 L283.46 374.9" class="st13"/>
			</g>
			<g id="shape107-320" v:mID="107" v:groupContext="shape" transform="translate(-176.472,374.898) rotate(-90)">
				<title>工作表.107</title>
				<path d="M0 374.9 L283.46 374.9" class="st13"/>
			</g>
			<g id="shape108-323" v:mID="108" v:groupContext="shape" transform="translate(-204.819,374.898) rotate(-90)">
				<title>工作表.108</title>
				<path d="M0 374.9 L283.46 374.9" class="st13"/>
			</g>
			<g id="shape109-326" v:mID="109" v:groupContext="shape" transform="translate(-218.992,374.898) rotate(-90)">
				<title>工作表.109</title>
				<path d="M0 374.9 L283.46 374.9" class="st13"/>
			</g>
			<g id="shape110-329" v:mID="110" v:groupContext="shape" transform="translate(-162.299,374.898) rotate(-90)">
				<title>工作表.110</title>
				<path d="M0 374.9 L283.46 374.9" class="st13"/>
			</g>
		</g>
	</g>
</svg>
